<svg id="Aproved" xmlns="http://www.w3.org/2000/svg" viewBox="0 0 2000 2000"><defs><style>.cls-1{fill:#39b54a;}.cls-2{fill:#f2f2f2;}</style></defs><circle id="Crcle" class="cls-1" cx="1000" cy="1000" r="1000"/><path id="Check" class="cls-2" d="M487.71,1204.82l390.63,252.33a66.48,66.48,0,0,0,82.62-8.37l726.87-712.66a66.48,66.48,0,0,0-.73-95.65L1577,535.72a66.48,66.48,0,0,0-97.57,6.44L958.49,1188a66.48,66.48,0,0,1-90.56,12.24L629.67,1029a66.48,66.48,0,0,0-85.44,6.59l-67.07,66A66.48,66.48,0,0,0,487.71,1204.82Z" transform="translate(-1)"/></svg>