<svg xmlns="http://www.w3.org/2000/svg" viewBox="0 0 564.12 733.55"><defs><style>.cls-1{fill:#c10b00;}.cls-1,.cls-3{stroke:#000;stroke-miterlimit:10;stroke-width:35px;}.cls-2{fill:#760436;}.cls-3{fill:#9dc6d7;}.cls-4{fill:#4e636b;}.cls-5{fill:#fff;}</style></defs><g id="Among_Us_Char" data-name="Among Us Char"><path id="Backpack" class="cls-1" d="M803.29,806S695.77,792.3,699.21,908.34s-10.34,226.34,26.43,242.43S808,1168.13,808,1168.13Z" transform="translate(-681.63 -592.93)"/><path class="cls-2" d="M718,882.68s28.79,59.74,64.34,12.26c6.13,146.68,7.28,254.3,7.28,254.3s-82.73,13-71.62-62C715.37,1024,708.41,903.75,718,882.68Z" transform="translate(-681.63 -592.93)"/><path id="Body" class="cls-1" d="M1191.21,885.49s29.62,268.72-35.87,387.07c-49.4,28.72-71.23,6.89-97.66,0-18.9-4.94-10.76-59.25-4.59-89.77a14.72,14.72,0,0,0-16.55-17.47L999,1170.77a24.93,24.93,0,0,0-21.33,23.17c-1.83,30.61-8.15,86.77-29.86,101.59-30.28,20.68-99.21,14.94-111.85,0s-28.73-77-31-191.87-9.2-284.93,0-303.32,21.83-198.76,181.53-189.57,168.89,99.76,168.89,99.76S1205.25,805.19,1191.21,885.49Z" transform="translate(-681.63 -592.93)"/><path id="Body_Shadow" data-name="Body Shadow" class="cls-2" d="M1006.85,1050.28c-59-7-109-40-139-92C835.94,902.44,846,825,833.26,762c-2.69,11.64-10.54,36.08-14.12,57.45-3.4,20.27.33,173.87,2.63,288.77s12.64,161.23,25.27,176.17,59.34,20.68,89.62,0c21.71-14.83,21.91-65.9,23.75-96.51.7-11.81,21.23-31.24,32.93-32.94l45.19-6.51c10.07-1.46,33,21.43,31,31.4-6.16,30.53-21.62,71.85-3.06,77.94,25.66,8.43,50.17,26.81,74.68,4.6,36.12-65.27,39.88-155,39.07-241.47C1124.32,1055.16,1073.3,1059.14,1006.85,1050.28Z" transform="translate(-681.63 -592.93)"/><path id="Face" class="cls-3" d="M1071.85,711.28c76.65,7.66,163,26,156,94s-47,112-144,113-129-20-153-103.5C918.85,730.28,1016.22,705.72,1071.85,711.28Z" transform="translate(-681.63 -592.93)"/><path id="Face_Shadow" data-name="Face Shadow" class="cls-4" d="M1206,828.94s-149.49,62.17-258.23-23c.2,9,14.91,82.47,76.06,90.32C1081.81,909.33,1187,906.94,1206,828.94Z" transform="translate(-681.63 -592.93)"/><path class="cls-5" d="M1119.72,755.53c-42.51-5.74-64.34-6.89-73.53,14.94s39.07,27.57,58.6,28.72,82.72,19.54,75.83-10.34S1119.72,755.53,1119.72,755.53Z" transform="translate(-681.63 -592.93)"/></g></svg>