<svg id="Reset_Button" data-name="Reset Button" xmlns="http://www.w3.org/2000/svg" viewBox="0 0 1785 1157.82"><defs><style>
    .cls-1{fill:#556665;}
    .cls-1,.cls-2,
    .cls-5{stroke:#000;stroke-miterlimit:10;}
    .cls-1,.cls-5{stroke-width:35px;}
    .cls-2{font-size:300px;fill:#fff;stroke-width:20px;font-family:Arial-Black, Arial;font-weight:800;letter-spacing:0.01em;}
    .cls-3{opacity:0.2;}
    .cls-4{fill:#43be40;}
    .cls-5{fill:none;}
    .cls-6{opacity:0.33;}

    <!-- Eye -->
    .cls-7{fill: white;animation: 2s blink infinite alternate;}
    <!-- Pupil -->
    .cls-8{fill: #491937;animation: 2s blink infinite alternate;}

    @keyframes eyeBlink {
        0%{
            transform: scaleY(0.1) translateY(2500px);
        },
        25%{
            transform: scaleY(1) translateY(400px);
        },
        75%{
            transform: translateX(200px);
        },
        100%{
            transform: translateX(-200px);
        }
    }

</style></defs><g id="Button"><rect id="Button-2" data-name="Button" class="cls-1" x="17.5" y="597.32" width="1750" height="543" rx="271.5"/><text class="cls-2" transform="translate(335.92 988.12)">RESET</text><path class="cls-3" d="M361.46,1385.5s-248.59-110-241-271.5c3.77-80.2,76-238.5,262.82-271.5C620,814,910,857,910,857s62.5,460.5,745.19,523.68" transform="translate(-108 -245.18)"/></g><g id="Pet"><g id="Body"><path class="cls-4" d="M770,630.45c-4.45,47.81,6.5,95.8,32.24,136.34l1.41,2.21c15.56,24.2,32.45,49.73,40.35,88,5,24,14.5,46.79,27.23,67.73,15.52,25.53-19.47,62.62-34,72.34-20.13,13.41-183.33-49.19-228-49.19-40.34,0-26.09,23.66-72.17,56.2a76.69,76.69,0,0,1-47.68,14.37c-26.31-1.26-42.24-16.35-65.71-41.5-31.3-33.54-22.36-51.42-42.48-73.78S352,889.73,320.69,874.07s-35.77-6.7-33.53-35.77,13.41-31.3,40.24-46.95,60.37-33.53,73.78-60.36c13.31-26.62-15.2-335,180.89-355.06,3.11-.32,6.23-.69,9.32-1.12,121.33-17.2,148.55,60.57,148.55,60.57,1.82,5.19,5.1,13.56,7.29,18.61C747.23,454,779.47,528.28,770,630.45Z" transform="translate(-108 -245.18)"/><path class="cls-5" d="M770,630.45c-4.45,47.81,6.5,95.8,32.24,136.34l1.41,2.21c15.56,24.2,32.45,49.73,40.35,88,5,24,14.5,46.79,27.23,67.73,15.52,25.53-19.47,62.62-34,72.34-20.13,13.41-183.33-49.19-228-49.19-40.34,0-26.09,23.66-72.17,56.2a76.69,76.69,0,0,1-47.68,14.37c-26.31-1.26-42.24-16.35-65.71-41.5-31.3-33.54-22.36-51.42-42.48-73.78S352,889.73,320.69,874.07s-35.77-6.7-33.53-35.77,13.41-31.3,40.24-46.95,60.37-33.53,73.78-60.36c13.31-26.62-15.2-335,180.89-355.06,3.11-.32,6.23-.69,9.32-1.12,121.33-17.2,148.55,60.57,148.55,60.57,1.82,5.19,5.1,13.56,7.29,18.61C747.23,454,779.47,528.28,770,630.45Z" transform="translate(-108 -245.18)"/></g><path d="M565.21,376a14.52,14.52,0,0,1-10.61-12.14L620,255.21c2.63-4.84,9.27-9.17,14.75-9.64,0,0,68.28-5.86,68.28,27.68s-63.78,31.6-63.78,31.6c-5.5-.16-12.81,3.21-16.26,7.5,0,0-18.57,23.11-7.15,61.51C620.08,388.23,565.21,376,565.21,376Z" transform="translate(-108 -245.18)"/><g class="cls-6"><path d="M833,847c-7.38-3-44.3,54.56-203.5,6.48-149-45-195.72-244.26-195.72-244.26-1.25-5.36-2.66-5.26-3.12.22l-8.16,87c0,5.5-.16,14.5-.34,20,0,0-.66,19-10.66,32S328.82,810,328.82,810c-4.58,3-11.86,8.33-16.18,11.73,0,0-6.14,4.82-8.14,14.82s-4,8,0,12,32,15,36,16,55.28,57.59,55.28,57.59A157.7,157.7,0,0,1,408,937.85S433.5,976.5,447.5,989.5s32,18,60,10,49-40,53-45,27-29,63-23,48.75,18.11,48.75,18.11a43.29,43.29,0,0,0,17,9.13l128.5,29.52c5.36,1.23,13.34-.48,17.72-3.8,0,0,21-16,22-16s15-25,11-40-22.59-68.16-22.59-68.16c-1.82-5.19-7.48-11.12-12.57-13.19Z" transform="translate(-108 -245.18)"/></g><path class="cls-7" d="M707.47,449.29c67.08,6.7,114,76,107.32,120.73S788,710.87,707.47,713.1s-172.15,6.71-158.73-131.91S707.47,449.29,707.47,449.29Z" transform="translate(-108 -245.18)"/><path class="cls-5" d="M707.47,449.29c67.08,6.7,114,76,107.32,120.73S788,710.87,707.47,713.1s-172.15,6.71-158.73-131.91S707.47,449.29,707.47,449.29Z" transform="translate(-108 -245.18)"/><g id="Eye_Lid" data-name="Eye Lid"><path class="cls-8" d="M736.54,511.89c20.76,8.3,33.53,38,24.59,60.36-8.22,20.55-33.53,33.54-55.89,26.83S665,574.49,671.7,541C675.86,520.15,691.82,494,736.54,511.89Z" transform="translate(-108 -245.18)"/></g></g></svg>