<svg id="Sus" xmlns="http://www.w3.org/2000/svg" viewBox="0 0 2000 2000"><defs><style>.cls-1{fill:#fbb03b;}.cls-2,.cls-3{fill:#556665;}.cls-2,.cls-3,.cls-4{stroke:#30353e;}.cls-2,.cls-3,.cls-4,.cls-7,.cls-8{stroke-miterlimit:10;}.cls-2{stroke-width:72px;}.cls-3{stroke-width:100px;}.cls-4{fill:#aeb9ba;stroke-width:50px;}.cls-5{fill:#30353e;}.cls-6,.cls-7,.cls-8{fill:#f2f2f2;}.cls-7{font-size:685.37px;}.cls-7,.cls-8{stroke:#f2f2f2;stroke-width:30px;font-family:MyriadPro-Regular, Myriad Pro;}.cls-8{font-size:413.78px;}</style></defs><circle id="Crcle" class="cls-1" cx="1000" cy="1000" r="1000"/><path class="cls-2" d="M1215.68,472.45s59.32-70.9,105.62-60.77,389.2,513.63,389.2,552.69-14.06,233.7-109.76,368.6S1215.68,472.45,1215.68,472.45Z"/><path class="cls-3" d="M1603.43,1292.81c0-182.31-292.26-651.08-418.13-824.71S793.2,329.21,670.22,349.46s-230,182.31-250.31,272,33.28,960.71,33.28,960.71,120.09,286.47,599,86.81C1052.19,1669,1620.8,1528.64,1603.43,1292.81Z"/><path class="cls-4" d="M539,759.43c90.8-11.65,297.92-43.69,434.19-107.26a79.21,79.21,0,0,1,97.74,25.5c72.28,100.33,83.94,139.6,83.94,176.74,0,43.41-124.43,215.58-329.88,225.71s-254.64,50.64-331.33-138.9c-18.21-43.33-24-77.61-23.78-104A79.19,79.19,0,0,1,539,759.43Z"/><path class="cls-5" d="M1009.58,1685.84s-368.82-441.21-276.69-595.08c-93.06-.51-134.67-9.31-134.67-9.31s-84.17-49.08-116-171.33c-20.34-78,20.21-96.22,41.92-188.82-30.39-76.68,12.58-297.89,29.22-310.61C599.32,375.51,434.39,518,425,603s28.21,979.16,28.21,979.16,79.3,145.06,187.23,144.15S1009.58,1685.84,1009.58,1685.84Z"/><path class="cls-5" d="M1196.68,484s406.75,536.82,506.59,496.31c-40.52,303.84-72.22,303.26-72.22,303.26Z"/><path class="cls-6" d="M657,842.73s4.33,22.86-47.19,19-6-24.52,20.7-32.56S657,842.73,657,842.73Z"/><path class="cls-6" d="M722.48,828.77c45.63,9.46,257.67-41.59,254.48-72.08s-61-20.89-102.49-4.31S684.67,808.57,722.48,828.77Z"/><text class="cls-7" transform="translate(1150.81 607.66)">?</text><text class="cls-8" transform="matrix(0.96, -0.27, 0.27, 0.96, 952.73, 534.43)">?</text></svg>