<svg id="Close_Icon" data-name="Close Icon" xmlns="http://www.w3.org/2000/svg" viewBox="0 0 1853 1853"><defs><style>.cls-1{fill:#c1272d;}.cls-1,.cls-2{stroke:#000;stroke-miterlimit:10;stroke-width:35px;}.cls-2{fill:#f2f2f2;}</style></defs><circle id="Button" class="cls-1" cx="926.5" cy="926.5" r="909"/><g id="X_Icon" data-name="X Icon"><path class="cls-2" d="M1517.33,1277l-291-291,277.54-277.53a135,135,0,0,0,0-190.92h0a135,135,0,0,0-190.92,0L1035.44,795.15l-291-291a135,135,0,0,0-190.92,0h0a135,135,0,0,0,0,190.92l291,291L540.11,1290.47a135,135,0,0,0,0,190.92h0a135,135,0,0,0,190.92,0L1035.44,1177l291,291a135,135,0,0,0,190.92,0h0A135,135,0,0,0,1517.33,1277Z" transform="translate(-73.5 -73.5)"/></g></svg>