<svg id="Imposter" xmlns="http://www.w3.org/2000/svg" viewBox="0 0 2000 2000"><defs><style>.cls-1{fill:#c1272d;}.cls-2,.cls-3{fill:#556665;}.cls-2,.cls-3,.cls-4{stroke:#30353e;stroke-miterlimit:10;}.cls-2{stroke-width:72px;}.cls-3{stroke-width:100px;}.cls-4{fill:#aeb9ba;stroke-width:50px;}.cls-5{fill:#30353e;}.cls-6{fill:#f2f2f2;}.cls-7{fill:#fe0104;}</style></defs><circle id="Crcle" class="cls-1" cx="1000" cy="1000" r="1000"/><path class="cls-2" d="M1216.18,473s59.32-70.9,105.62-60.77S1711,925.81,1711,964.87s-14.06,233.7-109.76,368.6S1216.18,473,1216.18,473Z" transform="translate(-0.5 -0.5)"/><path class="cls-3" d="M1603.93,1293.31c0-182.31-292.26-651.08-418.13-824.71S793.7,329.71,670.72,350s-230,182.31-250.31,272,33.28,960.71,33.28,960.71,120.09,286.47,599,86.81C1052.69,1669.49,1621.3,1529.14,1603.93,1293.31Z" transform="translate(-0.5 -0.5)"/><path class="cls-4" d="M539.54,759.93c90.8-11.65,297.92-43.69,434.19-107.26a79.21,79.21,0,0,1,97.74,25.5c72.28,100.33,83.94,139.6,83.94,176.74,0,43.41-124.43,215.58-329.88,225.71s-254.64,50.64-331.33-138.9c-18.21-43.33-24-77.61-23.78-104A79.19,79.19,0,0,1,539.54,759.93Z" transform="translate(-0.5 -0.5)"/><path class="cls-5" d="M1010.08,1686.34s-368.82-441.21-276.69-595.08c-93.06-.51-134.67-9.31-134.67-9.31s-84.17-49.08-116-171.33c-20.34-78,20.21-96.22,41.92-188.82-30.39-76.68,12.58-297.89,29.22-310.61,46-35.18-118.92,107.32-128.33,192.33s28.21,979.16,28.21,979.16,79.3,145.06,187.23,144.15S1010.08,1686.34,1010.08,1686.34Z" transform="translate(-0.5 -0.5)"/><path class="cls-5" d="M1197.18,484.48s406.75,536.82,506.59,496.31c-40.52,303.84-72.22,303.26-72.22,303.26Z" transform="translate(-0.5 -0.5)"/><path class="cls-6" d="M657.53,843.23s4.33,22.86-47.19,19-6-24.52,20.7-32.56S657.53,843.23,657.53,843.23Z" transform="translate(-0.5 -0.5)"/><path class="cls-6" d="M723,829.27c45.63,9.46,257.67-41.59,254.48-72.08s-61-20.89-102.49-4.31S685.17,809.07,723,829.27Z" transform="translate(-0.5 -0.5)"/><path class="cls-7" d="M832.76,383.24s227.16,409.46,73.79,526.65c104.18,0,141.79,27.49,248.86,180.86-72.34-212.69-73.79-243.07,13-279.24C1075.83,785.46,1045.45,867.93,832.76,383.24Z" transform="translate(-0.5 -0.5)"/></svg>