<svg id="Trash_Icon" data-name="Trash Icon" xmlns="http://www.w3.org/2000/svg" viewBox="0 0 1180.1 1769.99"><defs><style>.cls-1{fill:#575756;}.cls-1,.cls-2,.cls-3,.cls-6,.cls-8{stroke:#000;stroke-miterlimit:10;stroke-width:35px;}.cls-2{fill:#333;}.cls-3{fill:#f1d70f;}.cls-4{font-size:106.58px;font-family:ComicSansMS, Comic Sans MS;}.cls-5{opacity:0.2;}.cls-6{fill:#c10b00;}.cls-7{opacity:0.4;}.cls-8{fill:#89c8e1;}.cls-9{fill:#426271;}.cls-10{fill:#fff;}</style></defs><g id="Trash"><path id="Trash-2" data-name="Trash" class="cls-1" d="M532.5,821v80A26.49,26.49,0,0,0,559,927.5h2A26.49,26.49,0,0,1,587.5,954v887a26.49,26.49,0,0,0,26.5,26.5h769a26.49,26.49,0,0,0,26.5-26.5V954a26.49,26.49,0,0,1,26.5-26.5h0a26.49,26.49,0,0,0,26.5-26.5V821a26.49,26.49,0,0,0-26.5-26.5H559A26.49,26.49,0,0,0,532.5,821Z" transform="translate(-367.24 -115.01)"/><g id="Holes"><rect class="cls-2" x="797.26" y="899.49" width="76" height="706" rx="38"/><rect class="cls-2" x="594.26" y="899.49" width="76" height="706" rx="38"/><rect class="cls-2" x="392.26" y="899.49" width="76" height="706" rx="38"/></g></g><g id="Sticky_Note" data-name="Sticky Note"><path id="Sticky_Note-2" data-name="Sticky Note" class="cls-3" d="M1332.07,1308.92l49.91,81.14a14.35,14.35,0,0,0,4.45,4.56l136.8,88.94a14.51,14.51,0,0,1,1.21,23.46L1287.27,1698.5a14.52,14.52,0,0,1-19.75-1.41L1116.78,1535a14.47,14.47,0,0,1-3.73-7.8l-16.48-113.45a14.5,14.5,0,0,1,8.34-15.29l208.78-95.17A14.51,14.51,0,0,1,1332.07,1308.92Z" transform="translate(-367.24 -115.01)"/><text class="cls-4" transform="matrix(0.74, -0.45, 0.52, 0.86, 883.96, 1493.17)">DUM</text><path class="cls-5" d="M1317,1317s-221,135-33,368c27.21,33.72-23.18,4.89-23.18,4.89L1120,1526l-24-125Z" transform="translate(-367.24 -115.01)"/></g><g id="Baby_Crewmate" data-name="Baby Crewmate"><g id="Body"><path id="Body-2" data-name="Body" class="cls-6" d="M941.5,537.62l.24,121.14a1.15,1.15,0,0,0,1.22,1.16c10.7-.53,88.44-1.39,83.78,87.08-5,94.84-76.76,84-163.57,75a1.11,1.11,0,0,1-.72-.34C846.51,805.08,825.8,729.24,781.77,704a1.17,1.17,0,0,0-1.21,2c23.17,15.25,59.15,48.4,59.18,93v.14c-5.06,56-80,112.91-184,60.93s-133-79-139-106-9-422,0-442,116-223,269-171,251.42,219.49,155.9,396.07A1.18,1.18,0,0,0,941.5,537.62Z" transform="translate(-367.24 -115.01)"/><path id="Body_Shadow" data-name="Body Shadow" class="cls-7" d="M941.71,641.68c-163-17.68-332,87.32-431-295.68,9,129,15,172,15,172l-6.45,244.12S618.74,867,644.74,870s100,35,144,6,46-45,70-44,61.55,3.16,95.28-4.92S1023.74,805,1026.74,792s14-49,9-73,5-33-27-44-67-33.32-67-33.32" transform="translate(-367.24 -115.01)"/><g id="Backpack"><path id="Backpack-2" data-name="Backpack" class="cls-6" d="M510.74,367s-97,39-111,102-31,238,15,268,62,12,96,0c25-8.84,13.21-205.26,5.23-308.23C513.11,391.89,510.74,367,510.74,367Z" transform="translate(-367.24 -115.01)"/><path class="cls-7" d="M446.24,487.5c-48-13-62-1-62,19s-5,185,0,192,38,58,47,55,40,4,53,0,28.44-30.29,36.22-35.64S534.74,649,534.74,641s-23.5-181.5-23.5-181.5S494.24,500.5,446.24,487.5Z" transform="translate(-367.24 -115.01)"/></g></g><g id="Face"><path id="Face-2" data-name="Face" class="cls-8" d="M840.74,179c168-3.55,174,181,174,210s-20,180-174,175-179-140-176-192S698.74,182,840.74,179Z" transform="translate(-367.24 -115.01)"/><path id="Face_Shadow" data-name="Face Shadow" class="cls-9" d="M981.74,458s-215,98-291-133c-18,51-16,187,112,217C932.74,570,974.74,478,981.74,458Z" transform="translate(-367.24 -115.01)"/><path id="Face_Highlight" data-name="Face Highlight" class="cls-10" d="M920.74,296c-9.73,30.09-74,25-85,14s-49-34-39-62,52-33,79-15S931.74,262,920.74,296Z" transform="translate(-367.24 -115.01)"/></g></g></svg>